<svg width="26" height="26" viewBox="0 0 26 26" xmlns="http://www.w3.org/2000/svg">
<path d="M9.02773 16.8284C9.02814 16.6347 8.98842 16.443 8.91089 16.2643C8.83336 16.0857 8.71959 15.9238 8.57626 15.7882C8.4353 15.6503 8.26732 15.5408 8.0821 15.4661C7.89688 15.3914 7.6981 15.3529 7.49732 15.3529C7.29654 15.3529 7.09776 15.3914 6.91254 15.4661C6.72731 15.5408 6.55934 15.6503 6.41838 15.7882C6.2754 15.9241 6.16186 16.086 6.08437 16.2646C6.00687 16.4432 5.96697 16.6348 5.96697 16.8284C5.96697 17.0219 6.00687 17.2136 6.08437 17.3922C6.16186 17.5707 6.2754 17.7327 6.41838 17.8686C6.55986 18.0055 6.728 18.1142 6.91316 18.1884C7.09831 18.2625 7.29683 18.3007 7.49732 18.3007C7.69781 18.3007 7.89633 18.2625 8.08148 18.1884C8.26663 18.1142 8.43477 18.0055 8.57626 17.8686C8.71959 17.7329 8.83336 17.571 8.91089 17.3924C8.98842 17.2138 9.02814 17.022 9.02773 16.8284Z" />
<path fill-rule="evenodd" clip-rule="evenodd" d="M14.8782 11.4514C14.848 11.6049 14.8823 11.7637 14.9734 11.8929C15.0294 11.9723 15.1047 12.0373 15.1927 12.0823C15.2807 12.1273 15.3788 12.1509 15.4784 12.1511C15.6041 12.1533 15.7273 12.1171 15.8304 12.0478L21.0032 8.63207C21.0702 8.58906 21.1276 8.53357 21.1721 8.46885C21.2166 8.40414 21.2472 8.33151 21.2622 8.25522C21.2772 8.17894 21.2762 8.10054 21.2593 8.02463C21.2424 7.94872 21.21 7.87683 21.1639 7.81318C21.0724 7.68423 20.9316 7.59552 20.7724 7.56647C20.6132 7.53743 20.4485 7.57044 20.3145 7.65825L15.134 11.074C15.0003 11.1622 14.9083 11.2979 14.8782 11.4514Z" />
<path d="M8.57626 10.1961C8.71924 10.0602 8.83277 9.89824 8.91027 9.71966C8.98776 9.54109 9.02767 9.34944 9.02767 9.15587C9.02767 8.96229 8.98776 8.77065 8.91027 8.59207C8.83277 8.4135 8.71924 8.25155 8.57626 8.11565C8.4353 7.9778 8.26732 7.86834 8.0821 7.79363C7.89688 7.71891 7.6981 7.68044 7.49732 7.68044C7.29654 7.68044 7.09776 7.71891 6.91254 7.79363C6.72731 7.86834 6.55934 7.9778 6.41838 8.11565C6.2754 8.25155 6.16186 8.4135 6.08437 8.59207C6.00687 8.77065 5.96697 8.96229 5.96697 9.15587C5.96697 9.34944 6.00687 9.54109 6.08437 9.71966C6.16186 9.89824 6.2754 10.0602 6.41838 10.1961C6.55986 10.333 6.728 10.4417 6.91316 10.5159C7.09831 10.59 7.29683 10.6282 7.49732 10.6282C7.69781 10.6282 7.89633 10.59 8.08148 10.5159C8.26663 10.4417 8.43477 10.333 8.57626 10.1961Z" />
<path fill-rule="evenodd" clip-rule="evenodd" d="M21.1639 18.1711C21.1083 18.2509 21.0331 18.3163 20.945 18.3614C20.8569 18.4064 20.7586 18.4297 20.6588 18.4293C20.536 18.4281 20.4163 18.3922 20.3145 18.326L13.3129 13.7077L10.0607 15.8546C10.1866 16.1649 10.2515 16.4951 10.2521 16.8284C10.254 17.4404 10.0374 18.0344 9.63843 18.5104C9.23951 18.9865 8.6827 19.3156 8.06167 19.4423C7.44064 19.569 6.79329 19.4856 6.22852 19.2062C5.66375 18.9268 5.21602 18.4684 4.96066 17.9081C4.70531 17.3478 4.6579 16.7198 4.82641 16.1298C4.99492 15.5397 5.36908 15.0236 5.88593 14.6683C6.40278 14.313 7.03079 14.1401 7.66431 14.1788C8.29783 14.2175 8.8982 14.4654 9.36441 14.8807L12.2263 12.9921L9.36441 11.1035C8.8586 11.5606 8.19062 11.814 7.49732 11.8117C6.90839 11.8116 6.335 11.6295 5.86127 11.2922C5.38755 10.9549 5.03842 10.4801 4.86512 9.93741C4.69182 9.39476 4.70346 8.81284 4.89833 8.27703C5.09321 7.74123 5.46107 7.27974 5.94794 6.96027C6.4348 6.6408 7.01505 6.48018 7.60354 6.50196C8.19204 6.52373 8.7578 6.72677 9.21783 7.08128C9.67787 7.43579 10.0079 7.92311 10.1596 8.47174C10.3114 9.02037 10.2767 9.60144 10.0607 10.1297L21.0032 17.3522C21.0702 17.3952 21.1276 17.4507 21.1721 17.5154C21.2166 17.5801 21.2472 17.6527 21.2622 17.729C21.2772 17.8053 21.2762 17.8837 21.2593 17.9596C21.2424 18.0355 21.21 18.1074 21.1639 18.1711ZM8.91089 16.2643C8.98842 16.443 9.02814 16.6347 9.02773 16.8284C9.02814 17.022 8.98842 17.2138 8.91089 17.3924C8.83336 17.571 8.71959 17.7329 8.57626 17.8686C8.43477 18.0055 8.26663 18.1142 8.08148 18.1884C7.89633 18.2625 7.69781 18.3007 7.49732 18.3007C7.29683 18.3007 7.09831 18.2625 6.91316 18.1884C6.728 18.1142 6.55986 18.0055 6.41838 17.8686C6.2754 17.7327 6.16186 17.5707 6.08437 17.3922C6.00687 17.2136 5.96697 17.0219 5.96697 16.8284C5.96697 16.6348 6.00687 16.4432 6.08437 16.2646C6.16186 16.086 6.2754 15.9241 6.41838 15.7882C6.55934 15.6503 6.72731 15.5408 6.91254 15.4661C7.09776 15.3914 7.29654 15.3529 7.49732 15.3529C7.6981 15.3529 7.89688 15.3914 8.0821 15.4661C8.26732 15.5408 8.4353 15.6503 8.57626 15.7882C8.71959 15.9238 8.83336 16.0857 8.91089 16.2643ZM8.91027 9.71966C8.83277 9.89824 8.71924 10.0602 8.57626 10.1961C8.43477 10.333 8.26663 10.4417 8.08148 10.5159C7.89633 10.59 7.69781 10.6282 7.49732 10.6282C7.29683 10.6282 7.09831 10.59 6.91316 10.5159C6.728 10.4417 6.55986 10.333 6.41838 10.1961C6.2754 10.0602 6.16186 9.89824 6.08437 9.71966C6.00687 9.54109 5.96697 9.34944 5.96697 9.15587C5.96697 8.96229 6.00687 8.77065 6.08437 8.59207C6.16186 8.4135 6.2754 8.25155 6.41838 8.11565C6.55934 7.9778 6.72731 7.86834 6.91254 7.79363C7.09776 7.71891 7.29654 7.68044 7.49732 7.68044C7.6981 7.68044 7.89688 7.71891 8.0821 7.79363C8.26732 7.86834 8.4353 7.9778 8.57626 8.11565C8.71924 8.25155 8.83277 8.4135 8.91027 8.59207C8.98776 8.77065 9.02767 8.96229 9.02767 9.15587C9.02767 9.34944 8.98776 9.54109 8.91027 9.71966Z" />
</svg>
