<svg xmlns="http://www.w3.org/2000/svg" width="26" height="26" viewBox="0 0 26 26" fill="none">
  <g clip-path="url(#clip0_289_2161)">
    <path fill-rule="evenodd" clip-rule="evenodd" d="M10.9499 10C10.9164 10.0766 10.8758 10.1489 10.827 10.2147C10.827 10.2147 10.5299 10.8631 8.3867 11.1618C8.3867 11.1618 6.26374 11.1813 5.97502 13.8761L5.93497 17.8267C5.93497 17.8267 5.7806 20.1667 4.9408 21.4212C4.9408 21.4212 4.45385 22.2267 4.39757 24.0806C4.39757 24.0806 4.25486 25.6518 4.06728 26.1406C3.95296 26.4277 3.55498 26.9136 3.2437 27.2779C2.63331 27.9887 1.60744 29.4723 2.15624 29.6416C2.15624 29.6416 2.58438 29.6806 3.14712 28.6306C3.14712 28.6306 3.13546 29.0327 2.684 30.204C2.59528 30.4211 2.21784 31.5316 2.82925 31.1324C2.82925 31.1324 3.1124 30.9502 3.48046 29.8079C3.48046 29.8079 3.28299 31.7313 3.50276 31.828C3.78997 31.9598 3.94662 31.5793 4.07615 29.896C4.07615 29.896 4.20898 29.3524 4.27058 31.4273C4.27362 31.5344 4.44117 32.0681 4.67514 31.6126C4.83396 31.3054 4.80765 30.5915 4.79127 30.147C4.78729 30.0388 4.78389 29.9466 4.78389 29.8801C4.78389 29.8801 5.03712 31.1915 5.27388 31.1915C5.27388 31.1915 5.55246 31.4981 5.43814 29.8684C5.4251 29.6809 5.4707 29.3542 5.50312 29.1219C5.51672 29.0245 5.528 28.9436 5.53167 28.8966L5.55854 28.2718C5.55854 28.2718 5.48909 27.556 5.48909 27.258C5.48909 27.1841 5.76235 26.2094 6.48301 25.1806C6.48301 25.1806 7.98188 22.6898 7.8853 21.0621C7.8853 21.0621 7.86451 19.5089 8.46807 18.629C8.46807 18.629 8.89646 23.0287 8.60622 24.2639C8.60622 24.2639 7.25792 27.2986 7.55526 29.5618C7.58209 29.7683 7.61198 30.0034 7.64455 30.2597C7.87787 32.0952 8.24925 35.0169 8.62649 36.2631C8.7444 36.6489 8.7638 37.343 8.78167 37.9824C8.79783 38.5609 8.81275 39.0945 8.89823 39.3144C8.97935 39.5155 8.93676 39.7008 8.76236 40.1563C8.15729 41.7498 8.23435 42.8722 9.75629 47.1005C9.75629 47.1005 10.2247 48.0374 9.98797 49.7207C9.98797 49.7207 9.0156 51.595 9.63842 51.6325C9.63842 51.6325 9.68709 51.7567 9.89773 51.6584C9.89773 51.6584 10.2341 51.9838 10.5976 51.8073C10.5976 51.8073 10.9342 52.059 11.2219 51.8349C11.2219 51.8349 11.4526 52.0835 11.789 51.8826C11.789 51.8826 12.2306 52.1616 12.4929 51.8593C12.4929 51.8593 12.9591 51.9562 12.1292 49.9865C12.1292 49.9865 11.8113 47.8982 11.6361 47.4876C11.302 46.7098 11.538 44.5781 11.6093 44.1212C11.7241 43.3574 11.6625 42.0562 11.4526 41.0495C11.3378 40.5102 11.5412 39.613 11.7154 38.8445C11.7743 38.5848 11.8298 38.3398 11.8686 38.1284C12.1842 36.3655 12.8027 31.865 12.7254 31.0134L12.9809 31.0975C13.1639 31.0979 13.2795 31.0141 13.2795 31.0141C13.2024 31.8643 13.8184 36.3645 14.1363 38.1291C14.1751 38.3435 14.2313 38.5926 14.2908 38.8566C14.4634 39.6218 14.6643 40.5126 14.5533 41.0502C14.3401 42.0581 14.2785 43.3624 14.3959 44.1219C14.4699 44.5831 14.7028 46.7103 14.3695 47.4883C14.1951 47.8963 13.8754 49.9872 13.8754 49.9872C13.0427 51.9569 13.5127 51.86 13.5127 51.86C13.7705 52.1564 14.2121 51.8833 14.2121 51.8833C14.5485 52.0842 14.7814 51.8356 14.7814 51.8356C15.0701 52.0595 15.4068 51.808 15.4068 51.808C15.7695 51.9845 16.1059 51.6591 16.1059 51.6591C16.3142 51.7574 16.3652 51.6332 16.3652 51.6332C16.9903 51.5957 16.0164 49.7214 16.0164 49.7214C15.7832 48.0381 16.2478 47.1012 16.2478 47.1012C17.7698 42.8727 17.8471 41.7506 17.2387 40.157C17.0674 39.697 17.024 39.5148 17.1028 39.3151C17.19 39.0947 17.2051 38.5557 17.2214 37.9728C17.2393 37.3366 17.2586 36.648 17.3746 36.2638C17.7471 35.0305 18.1152 32.1518 18.3501 30.3154C18.3856 30.0375 18.4181 29.7834 18.4471 29.5626C18.7434 27.2993 17.3974 24.2646 17.3974 24.2646C17.1026 23.0297 17.5348 18.6297 17.5348 18.6297C18.1383 19.5096 18.1153 21.0628 18.1153 21.0628C18.0195 22.6917 19.5198 25.1813 19.5198 25.1813C20.2408 26.2101 20.5138 27.1862 20.5138 27.2587C20.5138 27.5551 20.4446 28.2725 20.4446 28.2725L20.4722 28.8973C20.4759 28.9445 20.4868 29.0257 20.5001 29.1236C20.5315 29.3562 20.5756 29.6828 20.5647 29.8692C20.4522 31.4988 20.7285 31.1922 20.7285 31.1922C20.9617 31.1922 21.218 29.8808 21.218 29.8808C21.218 29.9472 21.2146 30.0395 21.2106 30.1479C21.1942 30.5921 21.1679 31.3063 21.3244 31.6133C21.5574 32.0688 21.7287 31.5352 21.7318 31.428C21.7934 29.3531 21.9264 29.8967 21.9264 29.8967C22.056 31.58 22.2152 31.9603 22.5006 31.8287C22.7168 31.732 22.5191 29.8086 22.5191 29.8086C22.8894 30.9512 23.1703 31.1331 23.1703 31.1331C23.7815 31.5352 23.4035 30.4246 23.3186 30.2047C22.8664 29.0363 22.8524 28.6314 22.8524 28.6314C23.4175 29.6813 23.8433 29.6424 23.8433 29.6424C24.3944 29.4775 23.3617 27.9909 22.7566 27.2786C22.4479 26.9157 22.0496 26.4298 21.9341 26.1413C21.7457 25.6525 21.6035 24.0813 21.6035 24.0813C21.5465 22.2272 21.0572 21.4219 21.0572 21.4219C20.2207 20.1674 20.0633 17.8275 20.0633 17.8275L20.0263 13.8768C19.733 11.182 17.6136 11.1625 17.6136 11.1625C15.4714 10.8638 15.1733 10.2154 15.1733 10.2154C15.1243 10.1494 15.0837 10.0769 15.0501 10H10.9499Z" fill="white" fill-opacity="0.2"/>
    <path fill-rule="evenodd" clip-rule="evenodd" d="M15.0542 10C14.7766 9.36425 14.983 8.43092 14.983 8.43092C15.3594 8.14404 15.5046 7.38241 15.5046 7.38241C16.1297 6.93331 16.0991 6.27618 15.8104 6.2833C15.5787 6.289 15.6311 6.10922 15.6311 6.10922C16.022 3.15104 13.219 3 13.219 3H12.7911C12.7911 3 9.98675 3.15104 10.3771 6.10851C10.3771 6.10851 10.4296 6.28853 10.1959 6.28259C9.90791 6.27546 9.88104 6.9326 10.5039 7.38169C10.5039 7.38169 10.6489 8.14309 11.0255 8.43021C11.0255 8.43021 11.2321 9.36424 10.954 10H15.0542Z" fill="white" fill-opacity="0.5"/>
  </g>
  <defs>
    <clipPath id="clip0_289_2161">
      <rect width="26" height="26" fill="white"/>
    </clipPath>
  </defs>
</svg>