<svg xmlns="http://www.w3.org/2000/svg" width="26" height="26" viewBox="0 0 26 26" fill="none">
  <g clip-path="url(#clip0_289_2152)">
    <path fill-rule="evenodd" clip-rule="evenodd" d="M13 -7H12.787C12.787 -7 9.98265 -6.84896 10.373 -3.89149C10.373 -3.89149 10.4255 -3.71147 10.1918 -3.71741C9.90382 -3.72454 9.87695 -3.0674 10.4998 -2.61831C10.4998 -2.61831 10.6448 -1.85691 11.0214 -1.56979C11.0214 -1.56979 11.2808 -0.397062 10.827 0.214713C10.827 0.214713 10.5299 0.863061 8.3867 1.16182C8.3867 1.16182 6.26374 1.1813 5.97502 3.8761L5.93497 7.82675C5.93497 7.82675 5.7806 10.1667 4.9408 11.4212C4.9408 11.4212 4.45385 12.2267 4.39757 14.0806C4.39757 14.0806 4.25486 15.6518 4.06728 16.1406C3.95296 16.4277 3.55498 16.9136 3.2437 17.2779C2.63331 17.9887 1.60744 19.4723 2.15624 19.6416C2.15624 19.6416 2.58438 19.6806 3.14712 18.6306C3.14712 18.6306 3.13546 19.0327 2.684 20.204C2.59528 20.4211 2.21784 21.5316 2.82925 21.1324C2.82925 21.1324 3.1124 20.9502 3.48046 19.8079C3.48046 19.8079 3.28299 21.7313 3.50276 21.828C3.78997 21.9598 3.94662 21.5793 4.07615 19.896C4.07615 19.896 4.20898 19.3524 4.27058 21.4273C4.27362 21.5344 4.44117 22.0681 4.67514 21.6126C4.83396 21.3054 4.80765 20.5915 4.79127 20.147C4.78729 20.0388 4.78389 19.9466 4.78389 19.8801C4.78389 19.8801 5.03712 21.1915 5.27388 21.1915C5.27388 21.1915 5.55246 21.4981 5.43814 19.8684C5.4251 19.6809 5.4707 19.3542 5.50312 19.1219C5.51672 19.0245 5.528 18.9436 5.53167 18.8966L5.55854 18.2718C5.55854 18.2718 5.48909 17.556 5.48909 17.258C5.48909 17.1841 5.76235 16.2094 6.48301 15.1806C6.48301 15.1806 7.98188 12.6898 7.8853 11.0621C7.8853 11.0621 7.86451 9.50889 8.46807 8.62899C8.46807 8.62899 8.89646 13.0287 8.60622 14.2639C8.60622 14.2639 7.25792 17.2986 7.55526 19.5618C7.58209 19.7683 7.61198 20.0034 7.64455 20.2597C7.87787 22.0952 8.24925 25.0169 8.62649 26.2631C8.7444 26.6489 8.7638 27.343 8.78167 27.9824C8.79783 28.5609 8.81275 29.0945 8.89823 29.3144C8.97935 29.5155 8.93676 29.7008 8.76236 30.1563C8.15729 31.7498 8.23435 32.8722 9.75629 37.1005C9.75629 37.1005 10.2247 38.0374 9.98797 39.7207C9.98797 39.7207 9.0156 41.595 9.63842 41.6325C9.63842 41.6325 9.68709 41.7567 9.89773 41.6584C9.89773 41.6584 10.2341 41.9838 10.5976 41.8073C10.5976 41.8073 10.9342 42.059 11.2219 41.8349C11.2219 41.8349 11.4526 42.0835 11.789 41.8826C11.789 41.8826 12.2306 42.1616 12.4929 41.8593C12.4929 41.8593 12.9591 41.9562 12.1292 39.9865C12.1292 39.9865 11.8113 37.8982 11.6361 37.4876C11.302 36.7098 11.538 34.5781 11.6093 34.1212C11.7241 33.3574 11.6625 32.0562 11.4526 31.0495C11.3378 30.5102 11.5412 29.613 11.7154 28.8445C11.7743 28.5848 11.8298 28.3398 11.8686 28.1284C12.1842 26.3655 12.8027 21.865 12.7254 21.0134L12.9809 21.0975C12.9873 21.0975 12.9937 21.0974 13 21.0972V-7Z" fill="white" fill-opacity="0.5"/>
    <path fill-rule="evenodd" clip-rule="evenodd" d="M13 21.0972V-7H13.2149C13.2149 -7 16.0179 -6.84896 15.627 -3.89078C15.627 -3.89078 15.5746 -3.711 15.8063 -3.7167C16.095 -3.72382 16.1257 -3.06669 15.5006 -2.61759C15.5006 -2.61759 15.3553 -1.85596 14.9789 -1.56908C14.9789 -1.56908 14.7196 -0.396349 15.1733 0.215425C15.1733 0.215425 15.4714 0.863773 17.6136 1.16254C17.6136 1.16254 19.733 1.18201 20.0263 3.87681L20.0633 7.82746C20.0633 7.82746 20.2207 10.1674 21.0572 11.4219C21.0572 11.4219 21.5465 12.2272 21.6035 14.0813C21.6035 14.0813 21.7457 15.6525 21.9341 16.1413C22.0496 16.4298 22.4479 16.9157 22.7566 17.2786C23.3617 17.9909 24.3944 19.4775 23.8433 19.6424C23.8433 19.6424 23.4175 19.6813 22.8524 18.6314C22.8524 18.6314 22.8664 19.0363 23.3186 20.2047C23.4035 20.4246 23.7815 21.5352 23.1703 21.1331C23.1703 21.1331 22.8894 20.9512 22.5191 19.8086C22.5191 19.8086 22.7168 21.732 22.5006 21.8287C22.2152 21.9603 22.056 21.58 21.9264 19.8967C21.9264 19.8967 21.7934 19.3531 21.7318 21.428C21.7287 21.5352 21.5574 22.0688 21.3244 21.6133C21.1679 21.3063 21.1942 20.5921 21.2106 20.1479C21.2146 20.0395 21.218 19.9472 21.218 19.8808C21.218 19.8808 20.9617 21.1922 20.7285 21.1922C20.7285 21.1922 20.4522 21.4988 20.5647 19.8692C20.5756 19.6828 20.5315 19.3562 20.5001 19.1236C20.4868 19.0257 20.4759 18.9445 20.4722 18.8973L20.4446 18.2725C20.4446 18.2725 20.5138 17.5551 20.5138 17.2587C20.5138 17.1862 20.2408 16.2101 19.5198 15.1813C19.5198 15.1813 18.0195 12.6917 18.1153 11.0628C18.1153 11.0628 18.1383 9.5096 17.5348 8.6297C17.5348 8.6297 17.1026 13.0297 17.3974 14.2646C17.3974 14.2646 18.7434 17.2993 18.4471 19.5626C18.4181 19.7834 18.3856 20.0375 18.3501 20.3154C18.1152 22.1519 17.7471 25.0305 17.3746 26.2638C17.2586 26.648 17.2393 27.3366 17.2214 27.9728C17.2051 28.5557 17.19 29.0947 17.1028 29.3151C17.024 29.5148 17.0674 29.697 17.2387 30.157C17.8471 31.7506 17.7698 32.8727 16.2478 37.1012C16.2478 37.1012 15.7832 38.0381 16.0164 39.7214C16.0164 39.7214 16.9903 41.5957 16.3652 41.6332C16.3652 41.6332 16.3142 41.7574 16.1059 41.6591C16.1059 41.6591 15.7695 41.9845 15.4068 41.808C15.4068 41.808 15.0701 42.0595 14.7814 41.8356C14.7814 41.8356 14.5485 42.0842 14.2121 41.8833C14.2121 41.8833 13.7705 42.1564 13.5127 41.86C13.5127 41.86 13.0427 41.9569 13.8754 39.9872C13.8754 39.9872 14.1951 37.8963 14.3695 37.4883C14.7028 36.7103 14.4699 34.5831 14.3959 34.1219C14.2785 33.3624 14.3401 32.0581 14.5533 31.0502C14.6643 30.5126 14.4634 29.6218 14.2908 28.8566C14.2313 28.5926 14.1751 28.3435 14.1363 28.1291C13.8184 26.3645 13.2024 21.8643 13.2795 21.0141C13.2795 21.0141 13.1719 21.0921 13 21.0972Z" fill="#CDCDCD" fill-opacity="0.2"/>
  </g>
  <defs>
    <clipPath id="clip0_289_2152">
      <rect width="26" height="26" fill="white"/>
    </clipPath>
  </defs>
</svg>