<svg xmlns="http://www.w3.org/2000/svg" width="26" height="20" viewBox="0 0 26 20" fill="none">
  <g clip-path="url(#clip0_289_2197)">
    <path fill-rule="evenodd" clip-rule="evenodd" d="M13 -29H12.787C12.787 -29 9.98265 -28.849 10.373 -25.8915C10.373 -25.8915 10.4255 -25.7115 10.1918 -25.7174C9.90382 -25.7245 9.87695 -25.0674 10.4998 -24.6183C10.4998 -24.6183 10.6448 -23.8569 11.0214 -23.5698C11.0214 -23.5698 11.2808 -22.3971 10.827 -21.7853C10.827 -21.7853 10.5299 -21.1369 8.3867 -20.8382C8.3867 -20.8382 6.26374 -20.8187 5.97502 -18.1239L5.93497 -14.1733C5.93497 -14.1733 5.7806 -11.8333 4.9408 -10.5788C4.9408 -10.5788 4.45385 -9.77327 4.39757 -7.91943C4.39757 -7.91943 4.25486 -6.34819 4.06728 -5.85944C3.95296 -5.57231 3.55498 -5.08641 3.2437 -4.7221C2.63331 -4.01129 1.60744 -2.52769 2.15624 -2.35836C2.15624 -2.35836 2.58438 -2.31941 3.14712 -3.36935C3.14712 -3.36935 3.13546 -2.96728 2.684 -1.79598C2.59528 -1.57891 2.21784 -0.46841 2.82925 -0.867632C2.82925 -0.867632 3.1124 -1.04979 3.48046 -2.19211C3.48046 -2.19211 3.28299 -0.268681 3.50276 -0.172022C3.78997 -0.0402145 3.94662 -0.420675 4.07615 -2.10401C4.07615 -2.10401 4.20898 -2.64762 4.27058 -0.57267C4.27362 -0.465561 4.44117 0.068079 4.67514 -0.387426C4.83396 -0.694576 4.80765 -1.40854 4.79127 -1.85305C4.78729 -1.9612 4.78389 -2.05341 4.78389 -2.11992C4.78389 -2.11992 5.03712 -0.808496 5.27388 -0.808496C5.27388 -0.808496 5.55246 -0.501896 5.43814 -2.13155C5.4251 -2.31912 5.4707 -2.6458 5.50312 -2.87811C5.51672 -2.97553 5.528 -3.05635 5.53167 -3.10336L5.55854 -3.7282C5.55854 -3.7282 5.48909 -4.444 5.48909 -4.74205C5.48909 -4.8159 5.76235 -5.79056 6.48301 -6.81937C6.48301 -6.81937 7.98188 -9.31017 7.8853 -10.9379C7.8853 -10.9379 7.86451 -12.4911 8.46807 -13.371C8.46807 -13.371 8.89646 -8.97127 8.60622 -7.73608C8.60622 -7.73608 7.25792 -4.70143 7.55526 -2.43815C7.58209 -2.23174 7.61198 -1.99663 7.64455 -1.74035C7.87787 0.0951691 8.24925 3.01692 8.62649 4.26311C8.7444 4.64887 8.7638 5.34301 8.78167 5.98238C8.79783 6.56086 8.81275 7.09451 8.89823 7.31438C8.97935 7.51553 8.93676 7.70078 8.76236 8.15628C8.15729 9.74984 8.23435 10.8722 9.75629 15.1005C9.75629 15.1005 10.2247 16.0374 9.98797 17.7207C9.98797 17.7207 9.0156 19.595 9.63842 19.6325C9.63842 19.6325 9.68709 19.7567 9.89773 19.6584C9.89773 19.6584 10.2341 19.9838 10.5976 19.8073C10.5976 19.8073 10.9342 20.059 11.2219 19.8349C11.2219 19.8349 11.4526 20.0835 11.789 19.8826C11.789 19.8826 12.2306 20.1616 12.4929 19.8593C12.4929 19.8593 12.9591 19.9562 12.1292 17.9865C12.1292 17.9865 11.8113 15.8982 11.6361 15.4876C11.302 14.7098 11.538 12.5781 11.6093 12.1212C11.7241 11.3574 11.6625 10.0562 11.4526 9.04948C11.3378 8.5102 11.5412 7.61296 11.7154 6.84447C11.7743 6.5848 11.8298 6.33984 11.8686 6.12835C12.1842 4.36546 12.8027 -0.134974 12.7254 -0.986614L12.9809 -0.902542C12.9873 -0.902525 12.9937 -0.902615 13 -0.9028V-29Z" fill="white" fill-opacity="0.5"/>
    <path fill-rule="evenodd" clip-rule="evenodd" d="M13 -0.9028V-29H13.2149C13.2149 -29 16.0179 -28.849 15.627 -25.8908C15.627 -25.8908 15.5746 -25.711 15.8063 -25.7167C16.095 -25.7238 16.1257 -25.0667 15.5006 -24.6176C15.5006 -24.6176 15.3553 -23.856 14.9789 -23.5691C14.9789 -23.5691 14.7196 -22.3963 15.1733 -21.7846C15.1733 -21.7846 15.4714 -21.1362 17.6136 -20.8375C17.6136 -20.8375 19.733 -20.818 20.0263 -18.1232L20.0633 -14.1725C20.0633 -14.1725 20.2207 -11.8326 21.0572 -10.5781C21.0572 -10.5781 21.5465 -9.7728 21.6035 -7.91871C21.6035 -7.91871 21.7457 -6.34748 21.9341 -5.85872C22.0496 -5.57017 22.4479 -5.08427 22.7566 -4.72138C23.3617 -4.00915 24.3944 -2.52246 23.8433 -2.35765C23.8433 -2.35765 23.4175 -2.3187 22.8524 -3.36864C22.8524 -3.36864 22.8664 -2.96372 23.3186 -1.79527C23.4035 -1.57535 23.7815 -0.464848 23.1703 -0.866919C23.1703 -0.866919 22.8894 -1.04884 22.5191 -2.1914C22.5191 -2.1914 22.7168 -0.267969 22.5006 -0.17131C22.2152 -0.0397415 22.056 -0.419964 21.9264 -2.10329C21.9264 -2.10329 21.7934 -2.64691 21.7318 -0.571955C21.7287 -0.464848 21.5574 0.0687923 21.3244 -0.386713C21.1679 -0.693653 21.1942 -1.40794 21.2106 -1.85207C21.2146 -1.9605 21.218 -2.05284 21.218 -2.11921C21.218 -2.11921 20.9617 -0.807783 20.7285 -0.807783C20.7285 -0.807783 20.4522 -0.501184 20.5647 -2.13084C20.5756 -2.31721 20.5315 -2.64382 20.5001 -2.87641C20.4868 -2.97429 20.4759 -3.05552 20.4722 -3.10265L20.4446 -3.72749C20.4446 -3.72749 20.5138 -4.44494 20.5138 -4.74133C20.5138 -4.81377 20.2408 -5.78985 19.5198 -6.81866C19.5198 -6.81866 18.0195 -9.30827 18.1153 -10.9372C18.1153 -10.9372 18.1383 -12.4904 17.5348 -13.3703C17.5348 -13.3703 17.1026 -8.97032 17.3974 -7.73537C17.3974 -7.73537 18.7434 -4.70072 18.4471 -2.43744C18.4181 -2.21657 18.3856 -1.9625 18.3501 -1.68456C18.1152 0.151852 17.7471 3.03052 17.3746 4.26382C17.2586 4.648 17.2393 5.33658 17.2214 5.97276C17.2051 6.55572 17.19 7.09467 17.1028 7.31509C17.024 7.51482 17.0674 7.69698 17.2387 8.15699C17.8471 9.75055 17.7698 10.8727 16.2478 15.1012C16.2478 15.1012 15.7832 16.0381 16.0164 17.7214C16.0164 17.7214 16.9903 19.5957 16.3652 19.6332C16.3652 19.6332 16.3142 19.7574 16.1059 19.6591C16.1059 19.6591 15.7695 19.9845 15.4068 19.808C15.4068 19.808 15.0701 20.0595 14.7814 19.8356C14.7814 19.8356 14.5485 20.0842 14.2121 19.8833C14.2121 19.8833 13.7705 20.1564 13.5127 19.86C13.5127 19.86 13.0427 19.9569 13.8754 17.9872C13.8754 17.9872 14.1951 15.8963 14.3695 15.4883C14.7028 14.7103 14.4699 12.5831 14.3959 12.1219C14.2785 11.3624 14.3401 10.0581 14.5533 9.05019C14.6643 8.51256 14.4634 7.62181 14.2908 6.85664C14.2313 6.59261 14.1751 6.34353 14.1363 6.12907C13.8184 4.36451 13.2024 -0.135687 13.2795 -0.985901C13.2795 -0.985901 13.1719 -0.907875 13 -0.9028Z" fill="#CDCDCD" fill-opacity="0.2"/>
  </g>
  <defs>
    <clipPath id="clip0_289_2197">
      <rect width="26" height="20" fill="white"/>
    </clipPath>
  </defs>
</svg>