<svg xmlns="http://www.w3.org/2000/svg" width="26" height="20" viewBox="0 0 26 20" fill="none">
  <g clip-path="url(#clip0_289_2188)">
    <path fill-rule="evenodd" clip-rule="evenodd" d="M13 -29H13.213C13.213 -29 16.0173 -28.849 15.627 -25.8915C15.627 -25.8915 15.5745 -25.7115 15.8082 -25.7174C16.0962 -25.7245 16.1231 -25.0674 15.5002 -24.6183C15.5002 -24.6183 15.3552 -23.8569 14.9786 -23.5698C14.9786 -23.5698 14.7192 -22.3971 15.173 -21.7853C15.173 -21.7853 15.4701 -21.1369 17.6133 -20.8382C17.6133 -20.8382 19.7363 -20.8187 20.025 -18.1239L20.065 -14.1733C20.065 -14.1733 20.2194 -11.8333 21.0592 -10.5788C21.0592 -10.5788 21.5462 -9.77327 21.6024 -7.91943C21.6024 -7.91943 21.7451 -6.34819 21.9327 -5.85944C22.047 -5.57231 22.445 -5.08641 22.7563 -4.7221C23.3667 -4.01129 24.3926 -2.52769 23.8438 -2.35836C23.8438 -2.35836 23.4156 -2.31941 22.8529 -3.36935C22.8529 -3.36935 22.8645 -2.96728 23.316 -1.79598C23.4047 -1.57891 23.7822 -0.46841 23.1707 -0.867632C23.1707 -0.867632 22.8876 -1.04979 22.5195 -2.19211C22.5195 -2.19211 22.717 -0.268681 22.4972 -0.172022C22.21 -0.0402145 22.0534 -0.420675 21.9238 -2.10401C21.9238 -2.10401 21.791 -2.64762 21.7294 -0.57267C21.7264 -0.465561 21.5588 0.068079 21.3249 -0.387426C21.166 -0.694576 21.1923 -1.40854 21.2087 -1.85305C21.2127 -1.9612 21.2161 -2.05341 21.2161 -2.11992C21.2161 -2.11992 20.9629 -0.808496 20.7261 -0.808496C20.7261 -0.808496 20.4475 -0.501896 20.5619 -2.13155C20.5749 -2.31912 20.5293 -2.6458 20.4969 -2.87811C20.4833 -2.97553 20.472 -3.05635 20.4683 -3.10336L20.4415 -3.7282C20.4415 -3.7282 20.5109 -4.444 20.5109 -4.74205C20.5109 -4.8159 20.2377 -5.79056 19.517 -6.81937C19.517 -6.81937 18.0181 -9.31017 18.1147 -10.9379C18.1147 -10.9379 18.1355 -12.4911 17.5319 -13.371C17.5319 -13.371 17.1035 -8.97127 17.3938 -7.73608C17.3938 -7.73608 18.7421 -4.70143 18.4447 -2.43815C18.4179 -2.23174 18.388 -1.99663 18.3554 -1.74035C18.1221 0.0951691 17.7507 3.01692 17.3735 4.26311C17.2556 4.64887 17.2362 5.34301 17.2183 5.98238C17.2022 6.56086 17.1873 7.09451 17.1018 7.31438C17.0206 7.51553 17.0632 7.70078 17.2376 8.15628C17.8427 9.74984 17.7656 10.8722 16.2437 15.1005C16.2437 15.1005 15.7753 16.0374 16.012 17.7207C16.012 17.7207 16.9844 19.595 16.3616 19.6325C16.3616 19.6325 16.3129 19.7567 16.1023 19.6584C16.1023 19.6584 15.7659 19.9838 15.4024 19.8073C15.4024 19.8073 15.0658 20.059 14.7781 19.8349C14.7781 19.8349 14.5474 20.0835 14.211 19.8826C14.211 19.8826 13.7694 20.1616 13.5071 19.8593C13.5071 19.8593 13.0409 19.9562 13.8708 17.9865C13.8708 17.9865 14.1887 15.8982 14.3639 15.4876C14.698 14.7098 14.462 12.5781 14.3907 12.1212C14.2759 11.3574 14.3375 10.0562 14.5474 9.04948C14.6622 8.5102 14.4588 7.61296 14.2846 6.84447C14.2257 6.5848 14.1702 6.33984 14.1314 6.12835C13.8158 4.36546 13.1973 -0.134974 13.2746 -0.986614L13.0191 -0.902542C13.0127 -0.902525 13.0063 -0.902615 13 -0.9028V-29Z" fill="white" fill-opacity="0.5"/>
    <path fill-rule="evenodd" clip-rule="evenodd" d="M13 -0.9028V-29H12.7851C12.7851 -29 9.98208 -28.849 10.373 -25.8908C10.373 -25.8908 10.4254 -25.711 10.1937 -25.7167C9.90502 -25.7238 9.87435 -25.0667 10.4994 -24.6176C10.4994 -24.6176 10.6447 -23.856 11.0211 -23.5691C11.0211 -23.5691 11.2804 -22.3963 10.8267 -21.7846C10.8267 -21.7846 10.5286 -21.1362 8.38638 -20.8375C8.38638 -20.8375 6.26698 -20.818 5.97369 -18.1232L5.93668 -14.1725C5.93668 -14.1725 5.77927 -11.8326 4.94276 -10.5781C4.94276 -10.5781 4.45353 -9.7728 4.3965 -7.91871C4.3965 -7.91871 4.25429 -6.34748 4.06595 -5.85872C3.95036 -5.57017 3.55213 -5.08427 3.24339 -4.72138C2.63831 -4.00915 1.60561 -2.52246 2.15669 -2.35765C2.15669 -2.35765 2.58254 -2.3187 3.14757 -3.36864C3.14757 -3.36864 3.13362 -2.96372 2.6814 -1.79527C2.59648 -1.57535 2.21854 -0.464848 2.82969 -0.866919C2.82969 -0.866919 3.11056 -1.04884 3.4809 -2.1914C3.4809 -2.1914 3.28318 -0.267969 3.49941 -0.17131C3.78483 -0.0397415 3.94402 -0.419964 4.07355 -2.10329C4.07355 -2.10329 4.20664 -2.64691 4.26823 -0.571955C4.27127 -0.464848 4.44263 0.0687923 4.67558 -0.386713C4.83206 -0.693653 4.80578 -1.40794 4.78944 -1.85207C4.78545 -1.9605 4.78205 -2.05284 4.78205 -2.11921C4.78205 -2.11921 5.03832 -0.807783 5.27153 -0.807783C5.27153 -0.807783 5.54783 -0.501184 5.43528 -2.13084C5.4244 -2.31721 5.46852 -2.64382 5.49993 -2.87641C5.51316 -2.97429 5.52413 -3.05552 5.52781 -3.10265L5.55544 -3.72749C5.55544 -3.72749 5.48624 -4.44494 5.48624 -4.74133C5.48624 -4.81377 5.75924 -5.78985 6.48016 -6.81866C6.48016 -6.81866 7.98055 -9.30827 7.88473 -10.9372C7.88473 -10.9372 7.86166 -12.4904 8.46521 -13.3703C8.46521 -13.3703 8.89741 -8.97032 8.6026 -7.73537C8.6026 -7.73537 7.25659 -4.70072 7.55291 -2.43744C7.5819 -2.21657 7.61439 -1.9625 7.64994 -1.68456C7.88478 0.151852 8.2529 3.03052 8.62542 4.26382C8.74143 4.648 8.76073 5.33658 8.77856 5.97276C8.7949 6.55572 8.81001 7.09467 8.89716 7.31509C8.97599 7.51482 8.93264 7.69698 8.76129 8.15699C8.15292 9.75055 8.23023 10.8727 9.75217 15.1012C9.75217 15.1012 10.2168 16.0381 9.9836 17.7214C9.9836 17.7214 9.0097 19.5957 9.6348 19.6332C9.6348 19.6332 9.68575 19.7574 9.89412 19.6591C9.89412 19.6591 10.2305 19.9845 10.5932 19.808C10.5932 19.808 10.9299 20.0595 11.2186 19.8356C11.2186 19.8356 11.4515 20.0842 11.7879 19.8833C11.7879 19.8833 12.2295 20.1564 12.4873 19.86C12.4873 19.86 12.9573 19.9569 12.1246 17.9872C12.1246 17.9872 11.8049 15.8963 11.6305 15.4883C11.2972 14.7103 11.5301 12.5831 11.6041 12.1219C11.7215 11.3624 11.6599 10.0581 11.4467 9.05019C11.3357 8.51256 11.5366 7.62181 11.7092 6.85664C11.7687 6.59261 11.8249 6.34353 11.8637 6.12907C12.1816 4.36451 12.7976 -0.135687 12.7205 -0.985901C12.7205 -0.985901 12.8281 -0.907875 13 -0.9028Z" fill="#CDCDCD" fill-opacity="0.2"/>
  </g>
  <defs>
    <clipPath id="clip0_289_2188">
      <rect width="26" height="20" fill="white" transform="matrix(-1 0 0 1 26 0)"/>
    </clipPath>
  </defs>
</svg>