<svg xmlns="http://www.w3.org/2000/svg" width="26" height="26" viewBox="0 0 26 26" fill="none">
  <g clip-path="url(#clip0_289_2179)">
    <path fill-rule="evenodd" clip-rule="evenodd" d="M13 -7H13.213C13.213 -7 16.0173 -6.84896 15.627 -3.89149C15.627 -3.89149 15.5745 -3.71147 15.8082 -3.71741C16.0962 -3.72454 16.1231 -3.0674 15.5002 -2.61831C15.5002 -2.61831 15.3552 -1.85691 14.9786 -1.56979C14.9786 -1.56979 14.7192 -0.397062 15.173 0.214713C15.173 0.214713 15.4701 0.863061 17.6133 1.16182C17.6133 1.16182 19.7363 1.1813 20.025 3.8761L20.065 7.82675C20.065 7.82675 20.2194 10.1667 21.0592 11.4212C21.0592 11.4212 21.5462 12.2267 21.6024 14.0806C21.6024 14.0806 21.7451 15.6518 21.9327 16.1406C22.047 16.4277 22.445 16.9136 22.7563 17.2779C23.3667 17.9887 24.3926 19.4723 23.8438 19.6416C23.8438 19.6416 23.4156 19.6806 22.8529 18.6306C22.8529 18.6306 22.8645 19.0327 23.316 20.204C23.4047 20.4211 23.7822 21.5316 23.1707 21.1324C23.1707 21.1324 22.8876 20.9502 22.5195 19.8079C22.5195 19.8079 22.717 21.7313 22.4972 21.828C22.21 21.9598 22.0534 21.5793 21.9238 19.896C21.9238 19.896 21.791 19.3524 21.7294 21.4273C21.7264 21.5344 21.5588 22.0681 21.3249 21.6126C21.166 21.3054 21.1923 20.5915 21.2087 20.147C21.2127 20.0388 21.2161 19.9466 21.2161 19.8801C21.2161 19.8801 20.9629 21.1915 20.7261 21.1915C20.7261 21.1915 20.4475 21.4981 20.5619 19.8684C20.5749 19.6809 20.5293 19.3542 20.4969 19.1219C20.4833 19.0245 20.472 18.9436 20.4683 18.8966L20.4415 18.2718C20.4415 18.2718 20.5109 17.556 20.5109 17.258C20.5109 17.1841 20.2377 16.2094 19.517 15.1806C19.517 15.1806 18.0181 12.6898 18.1147 11.0621C18.1147 11.0621 18.1355 9.50889 17.5319 8.62899C17.5319 8.62899 17.1035 13.0287 17.3938 14.2639C17.3938 14.2639 18.7421 17.2986 18.4447 19.5618C18.4179 19.7683 18.388 20.0034 18.3554 20.2597C18.1221 22.0952 17.7507 25.0169 17.3735 26.2631C17.2556 26.6489 17.2362 27.343 17.2183 27.9824C17.2022 28.5609 17.1873 29.0945 17.1018 29.3144C17.0206 29.5155 17.0632 29.7008 17.2376 30.1563C17.8427 31.7498 17.7656 32.8722 16.2437 37.1005C16.2437 37.1005 15.7753 38.0374 16.012 39.7207C16.012 39.7207 16.9844 41.595 16.3616 41.6325C16.3616 41.6325 16.3129 41.7567 16.1023 41.6584C16.1023 41.6584 15.7659 41.9838 15.4024 41.8073C15.4024 41.8073 15.0658 42.059 14.7781 41.8349C14.7781 41.8349 14.5474 42.0835 14.211 41.8826C14.211 41.8826 13.7694 42.1616 13.5071 41.8593C13.5071 41.8593 13.0409 41.9562 13.8708 39.9865C13.8708 39.9865 14.1887 37.8982 14.3639 37.4876C14.698 36.7098 14.462 34.5781 14.3907 34.1212C14.2759 33.3574 14.3375 32.0562 14.5474 31.0495C14.6622 30.5102 14.4588 29.613 14.2846 28.8445C14.2257 28.5848 14.1702 28.3398 14.1314 28.1284C13.8158 26.3655 13.1973 21.865 13.2746 21.0134L13.0191 21.0975C13.0127 21.0975 13.0063 21.0974 13 21.0972V-7Z" fill="white" fill-opacity="0.5"/>
    <path fill-rule="evenodd" clip-rule="evenodd" d="M13 21.0972V-7H12.7851C12.7851 -7 9.98208 -6.84896 10.373 -3.89078C10.373 -3.89078 10.4254 -3.711 10.1937 -3.7167C9.90502 -3.72382 9.87435 -3.06669 10.4994 -2.61759C10.4994 -2.61759 10.6447 -1.85596 11.0211 -1.56908C11.0211 -1.56908 11.2804 -0.396349 10.8267 0.215425C10.8267 0.215425 10.5286 0.863773 8.38638 1.16254C8.38638 1.16254 6.26698 1.18201 5.97369 3.87681L5.93668 7.82746C5.93668 7.82746 5.77927 10.1674 4.94276 11.4219C4.94276 11.4219 4.45353 12.2272 4.3965 14.0813C4.3965 14.0813 4.25429 15.6525 4.06595 16.1413C3.95036 16.4298 3.55213 16.9157 3.24339 17.2786C2.63831 17.9909 1.60561 19.4775 2.15669 19.6424C2.15669 19.6424 2.58254 19.6813 3.14757 18.6314C3.14757 18.6314 3.13362 19.0363 2.6814 20.2047C2.59648 20.4246 2.21854 21.5352 2.82969 21.1331C2.82969 21.1331 3.11056 20.9512 3.4809 19.8086C3.4809 19.8086 3.28318 21.732 3.49941 21.8287C3.78483 21.9603 3.94402 21.58 4.07355 19.8967C4.07355 19.8967 4.20664 19.3531 4.26823 21.428C4.27127 21.5352 4.44263 22.0688 4.67558 21.6133C4.83206 21.3063 4.80578 20.5921 4.78944 20.1479C4.78545 20.0395 4.78205 19.9472 4.78205 19.8808C4.78205 19.8808 5.03832 21.1922 5.27153 21.1922C5.27153 21.1922 5.54783 21.4988 5.43528 19.8692C5.4244 19.6828 5.46852 19.3562 5.49993 19.1236C5.51316 19.0257 5.52413 18.9445 5.52781 18.8973L5.55544 18.2725C5.55544 18.2725 5.48624 17.5551 5.48624 17.2587C5.48624 17.1862 5.75924 16.2101 6.48016 15.1813C6.48016 15.1813 7.98055 12.6917 7.88473 11.0628C7.88473 11.0628 7.86166 9.5096 8.46521 8.6297C8.46521 8.6297 8.89741 13.0297 8.6026 14.2646C8.6026 14.2646 7.25659 17.2993 7.55291 19.5626C7.5819 19.7834 7.61439 20.0375 7.64994 20.3154C7.88478 22.1519 8.2529 25.0305 8.62542 26.2638C8.74143 26.648 8.76073 27.3366 8.77856 27.9728C8.7949 28.5557 8.81001 29.0947 8.89716 29.3151C8.97599 29.5148 8.93264 29.697 8.76129 30.157C8.15292 31.7506 8.23023 32.8727 9.75217 37.1012C9.75217 37.1012 10.2168 38.0381 9.9836 39.7214C9.9836 39.7214 9.0097 41.5957 9.6348 41.6332C9.6348 41.6332 9.68575 41.7574 9.89412 41.6591C9.89412 41.6591 10.2305 41.9845 10.5932 41.808C10.5932 41.808 10.9299 42.0595 11.2186 41.8356C11.2186 41.8356 11.4515 42.0842 11.7879 41.8833C11.7879 41.8833 12.2295 42.1564 12.4873 41.86C12.4873 41.86 12.9573 41.9569 12.1246 39.9872C12.1246 39.9872 11.8049 37.8963 11.6305 37.4883C11.2972 36.7103 11.5301 34.5831 11.6041 34.1219C11.7215 33.3624 11.6599 32.0581 11.4467 31.0502C11.3357 30.5126 11.5366 29.6218 11.7092 28.8566C11.7687 28.5926 11.8249 28.3435 11.8637 28.1291C12.1816 26.3645 12.7976 21.8643 12.7205 21.0141C12.7205 21.0141 12.8281 21.0921 13 21.0972Z" fill="#CDCDCD" fill-opacity="0.2"/>
  </g>
  <defs>
    <clipPath id="clip0_289_2179">
      <rect width="26" height="26" fill="white" transform="matrix(-1 0 0 1 26 0)"/>
    </clipPath>
  </defs>
</svg>