<svg width="27" height="26" viewBox="0 0 27 26" xmlns="http://www.w3.org/2000/svg">
<path d="M12.1288 10.0208C11.744 10.0209 11.375 10.1739 11.1029 10.446C10.8308 10.7181 10.6778 11.0871 10.6777 11.4719C10.6777 11.5678 10.7557 11.6458 10.8516 11.6458H16.4627C16.5088 11.6458 16.553 11.6275 16.5857 11.5949C16.6183 11.5623 16.6366 11.518 16.6366 11.4719C16.6364 11.0871 16.4835 10.7181 16.2114 10.446C15.9393 10.1739 15.5703 10.0209 15.1855 10.0208H12.1288ZM13.6569 2.16663C12.5908 2.1667 11.5621 2.55971 10.7676 3.27051C9.97307 3.9813 9.4684 4.96001 9.35008 6.0195C6.74466 7.51396 4.9902 10.323 4.9902 13.5416V15.1666H22.3235V13.5416C22.3235 10.323 20.5685 7.51396 17.9637 6.0195C17.8453 4.96001 17.3407 3.9813 16.5461 3.27051C15.7516 2.55971 14.7229 2.1667 13.6569 2.16663ZM13.6569 4.87496C12.7014 4.87496 11.7822 5.02933 10.9225 5.31533C11.1535 4.78197 11.5354 4.3278 12.0213 4.00876C12.5071 3.68971 13.0756 3.51972 13.6569 3.51972C14.2381 3.51972 14.8066 3.68971 15.2925 4.00876C15.7783 4.3278 16.1602 4.78197 16.3912 5.31533C15.5093 5.02277 14.586 4.87408 13.6569 4.87496ZM9.32354 11.4719C9.32354 10.7279 9.61909 10.0144 10.1452 9.48828C10.6713 8.96218 11.3848 8.66663 12.1288 8.66663H15.1849C15.9289 8.66663 16.6425 8.96218 17.1686 9.48828C17.6946 10.0144 17.9902 10.7279 17.9902 11.4719C17.9902 11.8772 17.8292 12.2658 17.5427 12.5524C17.2561 12.839 16.8674 13 16.4622 13H10.851C10.4459 12.9998 10.0573 12.8388 9.7709 12.5522C9.48445 12.2657 9.32354 11.8771 9.32354 11.4719ZM9.32354 16.5208V18.2812C9.32354 18.4608 9.39487 18.633 9.52185 18.76C9.64883 18.887 9.82105 18.9583 10.0006 18.9583C10.1802 18.9583 10.3524 18.887 10.4794 18.76C10.6064 18.633 10.6777 18.4608 10.6777 18.2812V16.5208H22.3235V20.9895C22.3235 22.5604 21.0506 23.8333 19.4798 23.8333H7.83395C7.07974 23.8333 6.35643 23.5337 5.82312 23.0004C5.28981 22.4671 4.9902 21.7438 4.9902 20.9895V16.5208H9.32354Z" />
</svg>
