<svg width="26" height="26" viewBox="0 0 26 26" xmlns="http://www.w3.org/2000/svg">
<path d="M4.6456 3.55469C4.0431 3.55469 3.55469 4.0431 3.55469 4.6456V10.3349C3.55469 10.9374 4.0431 11.4258 4.6456 11.4258H10.3349C10.9374 11.4258 11.4258 10.9374 11.4258 10.3349V4.6456C11.4258 4.0431 10.9374 3.55469 10.3349 3.55469H4.6456Z"/>
<path d="M15.6651 3.55469C15.0626 3.55469 14.5742 4.0431 14.5742 4.6456V10.3349C14.5742 10.9374 15.0626 11.4258 15.6651 11.4258H21.3544C21.9569 11.4258 22.4453 10.9374 22.4453 10.3349V4.6456C22.4453 4.0431 21.9569 3.55469 21.3544 3.55469H15.6651Z"/>
<path d="M14.5742 15.6652C14.5742 15.0627 15.0626 14.5742 15.6651 14.5742H21.3544C21.9569 14.5742 22.4453 15.0627 22.4453 15.6652V21.3544C22.4453 21.9569 21.9569 22.4454 21.3544 22.4454H15.6651C15.0626 22.4454 14.5742 21.9569 14.5742 21.3544V15.6652Z"/>
<path d="M4.6456 14.5742C4.0431 14.5742 3.55469 15.0627 3.55469 15.6652V21.3544C3.55469 21.9569 4.0431 22.4454 4.6456 22.4454H10.3349C10.9374 22.4454 11.4258 21.9569 11.4258 21.3544V15.6652C11.4258 15.0627 10.9374 14.5742 10.3349 14.5742H4.6456Z"/>
</svg>
