<svg width="27" height="26" viewBox="0 0 27 26" xmlns="http://www.w3.org/2000/svg">
<path fill-rule="evenodd" clip-rule="evenodd" d="M15.9542 2.33129C15.5534 2.16663 15.0442 2.16663 14.027 2.16663C13.0097 2.16663 12.5016 2.16663 12.0997 2.33129C11.5661 2.55035 11.1414 2.97237 10.9189 3.50454C10.817 3.74613 10.778 4.02888 10.7618 4.43946C10.7546 4.73695 10.6716 5.02768 10.5207 5.28416C10.3698 5.54064 10.156 5.75439 9.89946 5.90521C9.6381 6.05049 9.3443 6.12745 9.04528 6.12897C8.74626 6.13048 8.4517 6.0565 8.18888 5.91388C7.82271 5.72104 7.5573 5.61488 7.29513 5.58021C6.72156 5.5049 6.14146 5.65908 5.68096 6.00921C5.33646 6.27138 5.08188 6.70904 4.5738 7.58329C4.06463 8.45754 3.81113 8.89413 3.75371 9.32204C3.67788 9.89188 3.83388 10.4682 4.18705 10.9243C4.34738 11.1323 4.5738 11.3067 4.92371 11.5255C5.44046 11.8473 5.77196 12.3955 5.77196 13C5.77196 13.6045 5.44046 14.1526 4.9248 14.4733C4.5738 14.6932 4.34738 14.8676 4.18596 15.0756C4.01164 15.3009 3.88368 15.5585 3.80949 15.8335C3.7353 16.1085 3.71634 16.3955 3.75371 16.6779C3.81113 17.1047 4.06463 17.5424 4.5738 18.4166C5.08296 19.2909 5.33646 19.7275 5.68096 19.9907C6.1403 20.3406 6.72096 20.4945 7.29513 20.4197C7.5573 20.385 7.82271 20.2789 8.18888 20.086C8.45183 19.9432 8.7466 19.8691 9.04583 19.8707C9.34506 19.8722 9.63905 19.9492 9.90055 20.0947C10.427 20.398 10.739 20.956 10.7618 21.5605C10.778 21.9721 10.817 22.2538 10.9189 22.4954C11.1399 23.0262 11.5645 23.4487 12.0997 23.6686C12.5005 23.8333 13.0097 23.8333 14.027 23.8333C15.0442 23.8333 15.5534 23.8333 15.9542 23.6686C16.4878 23.4496 16.9126 23.0275 17.135 22.4954C17.2369 22.2538 17.2759 21.9721 17.2921 21.5605C17.3138 20.956 17.6269 20.397 18.1545 20.0947C18.4158 19.9494 18.7096 19.8725 19.0086 19.871C19.3077 19.8694 19.6022 19.9434 19.865 20.086C20.2312 20.2789 20.4966 20.385 20.7588 20.4197C21.333 20.4955 21.9136 20.3406 22.373 19.9907C22.7175 19.7285 22.972 19.2909 23.4801 18.4166C23.9893 17.5424 24.2428 17.1058 24.3002 16.6779C24.3374 16.3954 24.3183 16.1084 24.2439 15.8334C24.1695 15.5584 24.0414 15.3008 23.8669 15.0756C23.7065 14.8676 23.4801 14.6932 23.1302 14.4744C22.6135 14.1526 22.282 13.6045 22.282 13C22.282 12.3955 22.6135 11.8473 23.1291 11.5266C23.4801 11.3067 23.7065 11.1323 23.868 10.9243C24.0423 10.699 24.1702 10.4414 24.2444 10.1664C24.3186 9.89141 24.3376 9.60442 24.3002 9.32204C24.2428 8.89521 23.9893 8.45754 23.4801 7.58329C22.971 6.70904 22.7175 6.27246 22.373 6.00921C21.9125 5.65908 21.3324 5.5049 20.7588 5.58021C20.4966 5.61488 20.2312 5.72104 19.865 5.91388C19.6021 6.05669 19.3073 6.13078 19.0081 6.12926C18.7089 6.12775 18.4149 6.05068 18.1534 5.90521C17.8971 5.75426 17.6835 5.54044 17.5328 5.28397C17.3821 5.0275 17.2992 4.73684 17.2921 4.43946C17.2759 4.02779 17.2369 3.74613 17.135 3.50454C17.0249 3.24101 16.864 3.00175 16.6614 2.80044C16.4587 2.59913 16.2185 2.43971 15.9542 2.33129ZM14.027 16.25C15.8361 16.25 17.3019 14.795 17.3019 13C17.3019 11.2049 15.835 9.74996 14.027 9.74996C12.2178 9.74996 10.752 11.2049 10.752 13C10.752 14.795 12.2189 16.25 14.027 16.25Z" />
</svg>
