<svg width="27" height="26" viewBox="0 0 27 26"  xmlns="http://www.w3.org/2000/svg">
<path d="M8.14093 16.25H21.9534C22.1458 16.2531 22.3331 16.1879 22.4819 16.0659C22.6307 15.9439 22.7313 15.773 22.7659 15.5837L24.3909 6.64625C24.4126 6.528 24.4077 6.40642 24.3767 6.29027C24.3457 6.17412 24.2893 6.06631 24.2116 5.97459C24.1339 5.88288 24.0367 5.80956 23.9273 5.75991C23.8178 5.71026 23.6986 5.68553 23.5784 5.6875H6.88156L6.51593 3.89187C6.46497 3.71317 6.35908 3.55502 6.21326 3.43982C6.06744 3.32463 5.88908 3.25822 5.70343 3.25H4.07843C3.86294 3.25 3.65628 3.3356 3.50391 3.48798C3.35153 3.64035 3.26593 3.84701 3.26593 4.0625C3.26593 4.27799 3.35153 4.48465 3.50391 4.63702C3.65628 4.7894 3.86294 4.875 4.07843 4.875H5.04531L7.18218 14.8281C6.66996 15.0514 6.25001 15.4439 5.99266 15.9399C5.7353 16.4359 5.65616 17.0052 5.76848 17.5526C5.88081 18.0999 6.17779 18.5921 6.60969 18.9466C7.04158 19.3011 7.58217 19.4965 8.14093 19.5H9.09968C8.96605 19.8682 8.92311 20.2631 8.9745 20.6514C9.02588 21.0397 9.17008 21.4099 9.39488 21.7306C9.61967 22.0513 9.91845 22.3132 10.2659 22.494C10.6134 22.6747 10.9993 22.7691 11.3909 22.7691C11.7826 22.7691 12.1685 22.6747 12.516 22.494C12.8634 22.3132 13.1622 22.0513 13.387 21.7306C13.6118 21.4099 13.756 21.0397 13.8074 20.6514C13.8587 20.2631 13.8158 19.8682 13.6822 19.5H16.4122C16.2786 19.8682 16.2356 20.2631 16.287 20.6514C16.3384 21.0397 16.4826 21.4099 16.7074 21.7306C16.9322 22.0513 17.2309 22.3132 17.5784 22.494C17.9259 22.6747 18.3118 22.7691 18.7034 22.7691C19.0951 22.7691 19.481 22.6747 19.8285 22.494C20.1759 22.3132 20.4747 22.0513 20.6995 21.7306C20.9243 21.4099 21.0685 21.0397 21.1199 20.6514C21.1712 20.2631 21.1283 19.8682 20.9947 19.5H21.9534C22.1689 19.5 22.3756 19.4144 22.528 19.262C22.6803 19.1097 22.7659 18.903 22.7659 18.6875C22.7659 18.472 22.6803 18.2653 22.528 18.113C22.3756 17.9606 22.1689 17.875 21.9534 17.875H8.14093C7.92544 17.875 7.71878 17.7894 7.56641 17.637C7.41403 17.4847 7.32843 17.278 7.32843 17.0625C7.32843 16.847 7.41403 16.6403 7.56641 16.488C7.71878 16.3356 7.92544 16.25 8.14093 16.25Z" />
</svg>
